Coordinates
version=1
nRows=8
nColumns=40
inDegrees=yes

Units are S.I. units (second, meters, Newtons, ...)
If the header above contains a line with 'inDegrees', this indicates whether rotational values are in degrees (yes) or radians (no).

endheader
time	pelvis_tilt	pelvis_list	pelvis_rotation	pelvis_tx	pelvis_ty	pelvis_tz	hip_flexion_r	hip_adduction_r	hip_rotation_r	knee_angle_r	knee_angle_r_beta	ankle_angle_r	subtalar_angle_r	mtp_angle_r	hip_flexion_l	hip_adduction_l	hip_rotation_l	knee_angle_l	knee_angle_l_beta	ankle_angle_l	subtalar_angle_l	mtp_angle_l	lumbar_extension	lumbar_bending	lumbar_rotation	arm_flex_r	arm_add_r	arm_rot_r	elbow_flex_r	pro_sup_r	wrist_flex_r	wrist_dev_r	arm_flex_l	arm_add_l	arm_rot_l	elbow_flex_l	pro_sup_l	wrist_flex_l	wrist_dev_l
      4.50000000	    -28.68124820	     -2.58248740	     -2.02083561	     -0.30879806	      0.78234261	     -0.98282089	     27.74955080	     -6.37157309	      9.46597318	     91.34360476	      1.59424665	    -18.11297073	      0.00000000	      0.00000000	     72.57070892	     -3.61216000	     -2.71218590	     76.97380543	      1.34344634	     19.94041211	      0.00000000	      0.00000000	     -9.40968584	     -6.82157274	     10.12962588	     72.61138559	     -8.91294769	     24.08681889	     85.11157209	     81.86379423	      0.00000000	      0.00000000	     75.03896618	    -12.97051020	     30.05720106	     81.50946865	     79.19039991	      0.00000000	      0.00000000
      4.50500000	    -28.53081163	     -2.69678864	     -2.27584881	     -0.30817191	      0.78391405	     -0.98248225	     27.63842652	     -6.03609244	      9.76065398	     91.32758849	      1.59396712	    -18.05692004	      0.00000000	      0.00000000	     72.13923578	     -4.00362051	     -2.84128414	     76.60541999	      1.33701680	     19.85844604	      0.00000000	      0.00000000	     -9.33706502	     -6.64122282	     10.44093220	     72.56985035	     -8.93947110	     24.16989183	     85.23826156	     81.86462861	      0.00000000	      0.00000000	     74.97782599	    -13.08093955	     30.12082869	     81.69768313	     79.21969180	      0.00000000	      0.00000000
      4.51000000	    -28.38062313	     -2.61667904	     -2.51417804	     -0.30739224	      0.78535157	     -0.98226846	     27.53689406	     -6.02684057	     10.03797953	     91.31088453	      1.59367558	    -18.00198579	      0.00000000	      0.00000000	     71.79802818	     -4.23173294	     -3.03815088	     76.43509914	      1.33404414	     19.75277060	      0.00000000	      0.00000000	     -9.23629324	     -6.68932545	     10.71086281	     72.54954512	     -8.95091634	     24.16080829	     85.35258212	     81.86113966	      0.00000000	      0.00000000	     74.94031404	    -13.16034723	     30.14558202	     81.86363724	     79.25777504	      0.00000000	      0.00000000
      4.51500000	    -28.24864771	     -2.61203056	     -2.51150239	     -0.30679383	      0.78672765	     -0.98267036	     27.47056880	     -6.21264891	      9.92274787	     91.34599376	      1.59428835	    -18.02501055	      0.00000000	      0.00000000	     71.50173555	     -4.21578444	     -3.08216953	     76.23886933	      1.33061929	     19.65186384	      0.00000000	      0.00000000	     -9.14863259	     -6.58362141	     10.79568560	     72.50821430	     -8.93968747	     24.20925714	     85.37456411	     81.86326187	      0.00000000	      0.00000000	     74.89333766	    -13.11977901	     30.21884558	     81.93122939	     79.28890147	      0.00000000	      0.00000000
      4.52000000	    -28.09578627	     -2.54018667	     -2.64758902	     -0.30597707	      0.78833228	     -0.98248126	     27.33279654	     -6.22015383	     10.07142906	     91.29165430	      1.59333995	    -17.96308683	      0.00000000	      0.00000000	     71.06768508	     -4.31140734	     -3.20509702	     75.91282600	      1.32492876	     19.52204195	      0.00000000	      0.00000000	     -9.07457249	     -6.61892808	     10.95191981	     72.51328341	     -8.91701000	     24.20752695	     85.45868128	     81.86550129	      0.00000000	      0.00000000	     74.89295278	    -13.20313738	     30.20953186	     81.98946031	     79.31671861	      0.00000000	      0.00000000
      4.52500000	    -27.95305037	     -2.54903134	     -2.64206291	     -0.30536448	      0.78960005	     -0.98280264	     27.22786118	     -6.33485521	     10.00417382	     91.31919731	      1.59382066	    -17.98456199	      0.00000000	      0.00000000	     70.74692793	     -4.32479719	     -3.30520317	     75.70540783	      1.32130863	     19.46541775	      0.00000000	      0.00000000	     -8.98884916	     -6.50988223	     11.00452313	     72.49195185	     -8.98073397	     24.24551851	     85.51359415	     81.86853330	      0.00000000	      0.00000000	     74.88722793	    -13.21870536	     30.18999773	     82.05908981	     79.33595789	      0.00000000	      0.00000000
      4.53000000	    -27.96094023	     -2.65339996	     -2.68045588	     -0.30490725	      0.79071332	     -0.98284390	     27.25083044	     -6.22131793	     10.00122151	     91.26689367	      1.59290779	    -17.99251864	      0.00000000	      0.00000000	     70.58564387	     -4.43932814	     -3.31186252	     75.46741404	      1.31715485	     19.42412220	      0.00000000	      0.00000000	     -8.75018007	     -6.32954030	     11.08156482	     72.50501206	     -9.00140899	     24.27607787	     85.60687213	     81.87171825	      0.00000000	      0.00000000	     74.89703101	    -13.23748072	     30.20521866	     82.15522955	     79.35748227	      0.00000000	      0.00000000
      4.53500000	    -27.82551990	     -2.61026120	     -2.72052626	     -0.30417921	      0.79218613	     -0.98304860	     27.15124570	     -6.31032825	     10.05643433	     91.27288751	      1.59301240	    -18.01880553	      0.00000000	      0.00000000	     70.21505394	     -4.43069980	     -3.40786335	     75.17990032	      1.31213679	     19.39092460	      0.00000000	      0.00000000	     -8.66120889	     -6.30062612	     11.17583264	     72.48742401	     -8.98329249	     24.24411990	     85.70205902	     81.87150433	      0.00000000	      0.00000000	     74.88061657	    -13.25959874	     30.19285835	     82.27759184	     79.38923494	      0.00000000	      0.00000000
